<?xml version="1.0" standalone="no"?>
<!DOCTYPE svg PUBLIC "-//W3C//DTD SVG 20010904//EN"
 "http://www.w3.org/TR/2001/REC-SVG-20010904/DTD/svg10.dtd">
<svg version="1.0" xmlns="http://www.w3.org/2000/svg"
 width="3000.000000pt" height="2000.000000pt" viewBox="0 0 3000.000000 2000.000000"
 preserveAspectRatio="xMidYMid meet">

<g transform="translate(0.000000,2000.000000) scale(0.100000,-0.100000)"
fill="#000000" stroke="none">
<path d="M6013 17446 c-141 -46 -246 -135 -312 -265 -53 -102 -51 -61 -51
-1166 0 -566 0 -1036 0 -1042 0 -10 35 -13 140 -13 l140 0 2 1013 3 1012 30
60 c40 80 101 140 183 178 l67 32 8273 3 8272 2 0 105 0 105 -855 0 -855 0 0
-22 c0 -13 -4 -28 -8 -34 -5 -8 -161 -13 -515 -17 l-509 -5 4 39 4 39 -6971 0
-6970 -1 -72 -23z"/>
<path d="M9244 15510 c-11 -4 -33 -22 -47 -40 -73 -86 9 -225 120 -204 90 17
133 115 85 196 -28 48 -103 71 -158 48z"/>
<path d="M9943 15505 c-58 -25 -86 -124 -49 -180 41 -63 11 -60 671 -63 330
-2 614 0 632 3 46 8 91 50 103 96 9 33 8 47 -9 83 -35 80 0 76 -698 76 -504
-1 -624 -3 -650 -15z"/>
<path d="M11833 15505 c-38 -16 -73 -68 -73 -108 0 -43 29 -96 61 -112 24 -13
126 -15 652 -16 695 -2 668 -4 702 67 31 65 3 143 -60 170 -50 21 -1234 20
-1282 -1z"/>
<path d="M23508 15152 c-14 -20 -76 -99 -136 -176 -86 -108 -110 -144 -108
-165 2 -14 1 -32 -1 -38 -4 -10 -235 -13 -1108 -13 -1217 0 -1194 1 -1364 -63
-297 -113 -523 -360 -613 -672 l-23 -80 -2 -3627 -3 -3628 -2690 0 -2690 0 0
58 c0 31 7 190 15 352 8 162 15 301 15 308 0 9 37 12 150 12 l150 0 0 260 0
260 -447 0 -447 0 -24 23 -24 22 -717 3 -718 2 -36 -24 -37 -25 -2649 -1
-2649 0 -218 45 c-255 53 -366 82 -484 128 -112 43 -179 79 -210 112 -25 26
-25 29 -24 193 0 218 25 426 114 953 96 564 197 1014 252 1123 l20 39 -140 -6
c-94 -4 -153 -11 -181 -23 -53 -21 -115 -91 -130 -146 -10 -40 -31 -1514 -31
-2185 l0 -233 -195 0 -195 0 0 1635 0 1635 -140 0 -140 0 -2 -1087 c0 -599 0
-1334 1 -1635 l2 -548 -494 0 c-272 0 -785 -3 -1140 -7 l-647 -6 0 -249 0
-248 390 0 c304 0 392 -3 395 -12 2 -7 11 -461 20 -1008 37 -2358 63 -3904 75
-4440 8 -347 8 -340 4 150 -5 586 -25 2053 -54 3960 -11 718 -20 1315 -20
1327 0 22 1 22 163 20 l162 -2 -3 -225 c-2 -124 -16 -1159 -32 -2300 -25
-1753 -34 -2704 -23 -2390 1 41 18 1101 38 2355 19 1254 38 2344 41 2423 l6
142 557 -2 556 -3 2 -1241 1 -1241 25 -70 c56 -161 173 -278 332 -331 33 -11
80 -21 105 -22 25 -1 514 -1 1088 -1 l1042 1 0 165 0 165 -43 0 c-223 0 -796
120 -1106 231 -197 71 -351 133 -351 140 0 5 703 9 1627 9 894 0 1624 -2 1622
-4 -8 -9 -218 -89 -340 -131 -316 -108 -648 -187 -937 -222 l-142 -18 0 -167
0 -168 33 0 c17 0 562 0 1209 0 l1176 0 7 -62 c3 -35 19 -261 35 -503 130
-1941 115 -1759 144 -1751 12 3 125 6 251 7 239 2 605 13 784 25 l103 6 -7
572 c-4 314 -9 572 -10 574 -1 1 -93 -20 -205 -48 -111 -27 -205 -50 -210 -50
-4 0 -15 35 -24 78 -22 102 -55 249 -116 516 -27 120 -50 224 -50 230 0 9 58
24 168 45 215 41 710 140 739 147 21 6 22 3 18 -32 -7 -62 -25 -232 -25 -244
0 -5 -10 -10 -23 -10 -42 0 -107 -77 -107 -126 0 -23 14 -16 37 20 12 19 37
46 56 60 32 24 37 25 88 16 30 -5 66 -11 82 -12 15 -1 27 -3 27 -5 0 -1 -11
-19 -25 -39 -25 -37 -34 -97 -15 -109 5 -3 14 12 20 33 13 49 52 107 71 105 8
-1 44 -7 81 -13 l66 -12 -14 -34 c-17 -41 -18 -78 -2 -107 10 -20 13 -15 24
47 8 38 17 73 22 78 21 21 387 -76 534 -142 47 -21 78 -55 61 -69 -4 -4 -241
-65 -525 -135 l-517 -128 -6 -41 c-7 -56 -165 -1585 -165 -1603 0 -8 4 -14 9
-14 5 0 25 -7 44 -15 l36 -15 -24 -36 c-25 -36 -34 -97 -16 -108 5 -3 18 21
30 54 12 33 26 62 32 65 15 10 75 -13 222 -87 220 -109 342 -196 314 -225 -3
-3 -157 -8 -342 -12 -274 -6 -338 -10 -346 -22 -27 -43 -55 -42 824 -35 1045
8 1784 14 2952 22 661 5 922 10 927 18 5 8 1412 12 5305 16 2914 4 4902 7
4418 9 l-880 3 93 24 c177 46 335 136 462 264 128 129 209 269 259 450 l26 95
0 5835 c0 5502 -1 5839 -17 5902 -60 234 -194 435 -383 576 -121 89 -294 160
-449 181 -52 7 -447 11 -1192 11 l-1114 0 0 215 c0 118 -3 215 -7 215 -5 0
-20 -17 -35 -38z m-1227 -802 c56 -16 101 -51 129 -100 22 -40 26 -60 31 -190
4 -121 9 -152 27 -186 27 -52 81 -100 129 -113 54 -15 1793 -15 1848 0 56 15
128 92 143 152 7 25 12 97 12 159 0 125 14 170 66 221 64 64 44 62 559 65 503
3 590 -2 708 -43 216 -75 389 -264 449 -490 11 -41 13 -1059 13 -5705 0 -5507
0 -5657 -19 -5725 -33 -124 -90 -220 -185 -315 -118 -117 -233 -176 -391 -199
-40 -6 -980 -10 -2400 -12 l-2335 -3 -76 21 c-149 42 -254 100 -348 195 -94
94 -150 191 -182 316 -19 74 -19 171 -19 5711 0 6218 -5 5702 64 5846 103 216
306 365 541 398 68 9 1201 6 1236 -3z m-15063 -6407 c-10 -2 -26 -2 -35 0 -10
3 -2 5 17 5 19 0 27 -2 18 -5z m-910 -603 c2 -47 0 -212 -3 -367 l-7 -283
-184 0 -184 0 0 363 c0 200 3 367 7 371 4 3 88 5 187 4 l181 -3 3 -85z m1872
53 c0 -27 -34 -315 -45 -380 -5 -29 -9 -32 -58 -38 -148 -20 -891 -188 -927
-210 -20 -12 -25 183 -13 488 l6 167 519 0 518 0 0 -27z m1340 17 c0 -5 -4
-10 -9 -10 -4 0 -48 -24 -97 -54 -49 -30 -108 -67 -132 -81 -45 -28 -291 -102
-509 -155 -272 -65 -243 -61 -238 -36 2 11 9 94 16 184 l12 162 479 0 c312 0
478 -3 478 -10z m4910 -122 c0 -73 -3 -238 -7 -366 l-6 -232 -1080 2 -1079 3
-69 343 c-37 189 -71 352 -74 363 -6 19 17 19 1154 19 l1161 0 0 -132z m345
40 c-3 -51 -26 -559 -50 -1128 -25 -569 -69 -1606 -99 -2305 -31 -698 -64
-1506 -76 -1795 -11 -289 -23 -558 -26 -598 l-6 -72 -80 0 -79 0 5 138 c3 75
8 304 11 507 3 204 12 813 20 1355 8 542 19 1314 25 1715 6 402 15 1023 20
1380 6 358 10 705 10 773 l0 122 165 0 165 0 -5 -92z m5360 -2814 c13 -5 15
-142 15 -1113 0 -730 4 -1128 11 -1167 34 -195 127 -371 274 -520 132 -134
285 -220 475 -268 l85 -21 -620 -2 c-341 -2 -1236 1 -1990 5 l-1370 7 -17 215
c-10 118 -43 503 -73 855 -30 352 -80 928 -110 1280 -30 352 -56 657 -59 678
l-4 37 156 1 c1780 17 3202 22 3227 13z"/>
<path d="M22399 12071 c-44 -45 -35 -107 21 -136 85 -44 164 72 95 140 -34 35
-78 33 -116 -4z"/>
<path d="M22957 12080 c-50 -40 -39 -128 19 -150 15 -6 193 -10 420 -10 432 0
440 1 463 58 16 37 5 77 -26 102 -25 19 -42 20 -438 20 -398 0 -413 -1 -438
-20z"/>
<path d="M24133 12088 c-47 -23 -54 -106 -11 -144 19 -18 45 -19 440 -19 l420
0 24 28 c33 38 32 86 -2 121 l-27 26 -411 -1 c-266 0 -419 -4 -433 -11z"/>
<path d="M22407 11620 c-34 -27 -43 -70 -22 -110 41 -80 155 -52 155 38 -1 77
-75 117 -133 72z"/>
<path d="M24089 11611 c-20 -20 -29 -39 -29 -61 0 -22 9 -41 29 -61 l29 -29
907 0 c962 0 951 -1 969 45 14 37 6 86 -19 110 l-24 25 -916 0 -917 0 -29 -29z"/>
<path d="M22407 11140 c-34 -27 -43 -70 -22 -110 41 -80 155 -52 155 38 -1 77
-75 117 -133 72z"/>
<path d="M22407 10660 c-34 -27 -43 -70 -22 -110 41 -80 155 -52 155 38 -1 77
-75 117 -133 72z"/>
<path d="M22407 10180 c-34 -27 -43 -70 -22 -110 41 -80 155 -51 155 39 -1 76
-76 116 -133 71z"/>
<path d="M23144 10180 c-56 -23 -72 -103 -29 -145 l24 -25 256 0 256 0 24 25
c33 32 33 84 1 122 l-24 28 -244 2 c-133 1 -253 -2 -264 -7z"/>
<path d="M24038 10181 c-59 -17 -78 -102 -33 -146 l24 -25 896 0 897 0 30 30
c26 27 30 36 25 67 -4 20 -15 45 -25 55 -17 18 -60 19 -910 21 -491 1 -898 0
-904 -2z"/>
<path d="M22408 9699 c-71 -53 -17 -176 69 -154 64 16 85 101 37 149 -32 31
-69 33 -106 5z"/>
<path d="M23144 9700 c-56 -23 -72 -103 -29 -145 l24 -25 256 0 256 0 24 25
c33 32 33 84 1 122 l-24 28 -244 2 c-133 1 -253 -2 -264 -7z"/>
<path d="M22407 9220 c-70 -55 -15 -177 70 -155 64 16 85 101 37 149 -32 31
-71 34 -107 6z"/>
<path d="M24302 9118 c-30 -33 -36 -70 -17 -107 22 -43 49 -51 166 -51 134 0
168 19 169 93 0 27 -7 45 -25 62 -23 24 -30 25 -148 25 -115 0 -125 -2 -145
-22z"/>
<path d="M22407 8740 c-70 -55 -15 -177 70 -155 64 16 85 101 37 149 -32 31
-71 34 -107 6z"/>
<path d="M24376 8714 c-35 -35 -35 -86 -1 -119 l24 -25 351 0 351 0 24 25 c14
13 25 36 25 50 0 33 -24 81 -45 89 -9 3 -171 6 -359 6 l-343 0 -27 -26z"/>
<path d="M22407 8260 c-70 -55 -15 -177 70 -155 64 16 85 101 37 149 -32 31
-71 34 -107 6z"/>
<path d="M25170 7921 c-21 -20 -30 -39 -30 -61 0 -22 9 -41 30 -61 l29 -30
476 3 477 3 19 24 c11 14 19 39 19 61 0 22 -8 47 -19 61 l-19 24 -477 3 -476
3 -29 -30z"/>
<path d="M22407 7780 c-70 -55 -15 -177 70 -155 64 16 85 101 37 149 -32 31
-71 34 -107 6z"/>
<path d="M24105 7547 c-35 -30 -37 -88 -4 -123 l22 -24 477 0 c526 0 513 -2
525 64 8 38 -14 90 -40 100 -9 3 -228 6 -485 6 l-469 0 -26 -23z"/>
<path d="M22407 7300 c-52 -41 -40 -124 22 -149 85 -36 151 76 85 143 -32 31
-71 34 -107 6z"/>
<path d="M24051 6943 c-32 -27 -42 -74 -24 -111 8 -17 21 -33 29 -36 7 -3 228
-6 491 -6 l478 -2 22 27 c32 37 30 80 -6 116 l-29 29 -470 0 c-433 0 -471 -1
-491 -17z"/>
<path d="M22407 6820 c-77 -60 -6 -187 83 -150 57 24 69 98 24 144 -32 31 -71
34 -107 6z"/>
<path d="M22424 6365 c-18 -7 -36 -25 -43 -44 -36 -86 59 -158 133 -100 20 15
26 29 26 58 0 69 -57 111 -116 86z"/>
<path d="M24324 6266 c-57 -25 -67 -94 -21 -143 19 -22 29 -23 144 -23 118 0
125 1 148 25 36 35 34 88 -4 126 -29 28 -32 29 -133 29 -63 -1 -115 -6 -134
-14z"/>
<path d="M22424 5885 c-18 -7 -36 -25 -43 -44 -36 -86 59 -158 133 -100 20 15
26 29 26 58 0 69 -57 111 -116 86z"/>
<path d="M24678 5873 l-287 -3 -20 -27 c-35 -43 -22 -110 26 -132 16 -7 135
-11 359 -11 l336 0 29 29 c71 71 10 154 -108 149 -26 -2 -177 -4 -335 -5z"/>
<path d="M22424 5405 c-35 -14 -59 -63 -51 -98 17 -66 95 -90 142 -42 66 65
-6 176 -91 140z"/>
<path d="M25166 5049 c-14 -17 -26 -39 -26 -50 0 -28 26 -75 45 -83 9 -3 228
-6 485 -6 l469 0 26 23 c21 17 27 32 27 62 0 30 -6 45 -27 62 l-26 23 -474 0
-473 0 -26 -31z"/>
<path d="M22424 4925 c-35 -14 -59 -63 -51 -98 17 -66 95 -90 142 -42 66 65
-6 176 -91 140z"/>
<path d="M24103 4678 c-35 -38 -34 -88 2 -123 l24 -25 471 0 472 0 30 30 c26
27 30 36 25 67 -4 19 -14 44 -23 54 -16 18 -40 19 -499 19 l-482 0 -20 -22z"/>
<path d="M22424 4445 c-35 -14 -59 -63 -51 -98 17 -66 95 -90 142 -42 66 65
-6 176 -91 140z"/>
<path d="M24104 4092 c-82 -6 -116 -91 -59 -147 l24 -25 475 0 475 0 21 22
c40 43 38 106 -4 133 -19 13 -88 16 -457 18 -239 1 -453 1 -475 -1z"/>
<path d="M22423 3965 c-34 -14 -58 -63 -50 -98 25 -97 167 -84 167 16 0 67
-58 107 -117 82z"/>
<path d="M22402 3440 c-64 -60 -11 -169 74 -152 34 6 64 48 64 89 0 70 -87
110 -138 63z"/>
<path d="M23115 3435 c-33 -32 -33 -84 -1 -122 l24 -28 257 0 257 0 24 28 c32
38 32 90 -1 122 l-24 25 -256 0 -256 0 -24 -25z"/>
<path d="M24005 3435 c-35 -34 -34 -93 1 -126 l26 -24 892 0 c826 0 894 1 918
17 50 33 45 122 -8 147 -18 8 -275 11 -915 11 l-890 0 -24 -25z"/>
<path d="M23115 2955 c-31 -30 -33 -82 -4 -119 l20 -26 264 0 264 0 20 26 c29
37 27 89 -4 119 l-24 25 -256 0 -256 0 -24 -25z"/>
<path d="M22399 2921 c-32 -33 -36 -58 -14 -100 41 -81 155 -52 155 40 0 81
-84 117 -141 60z"/>
<path d="M9269 14850 c-67 -20 -99 -60 -99 -125 0 -100 109 -158 195 -105 75
46 76 167 2 214 -31 19 -67 25 -98 16z"/>
<path d="M11804 14817 c-62 -57 -58 -149 9 -194 l33 -23 1385 0 c1353 0 1385
1 1416 20 17 10 37 29 43 40 17 32 14 104 -6 135 -38 58 50 55 -1459 55
l-1385 0 -36 -33z"/>
<path d="M9229 14143 c-56 -35 -76 -116 -43 -173 46 -77 162 -83 213 -12 25
36 28 117 6 146 -41 54 -123 72 -176 39z"/>
<path d="M8315 13824 c-86 -19 -173 -64 -227 -118 -64 -65 -92 -115 -112 -208
l-6 -27 -37 16 c-54 22 -172 13 -243 -19 -89 -40 -154 -131 -180 -253 -18 -83
-34 -110 -104 -183 -70 -73 -69 -88 7 -110 50 -14 50 -15 18 -95 -17 -43 -13
-67 12 -76 15 -6 32 -4 51 6 27 14 28 14 22 -2 -3 -9 -9 -28 -13 -43 l-6 -25
59 6 59 6 24 -67 c12 -37 36 -102 53 -145 l29 -77 54 6 c51 6 54 5 97 -35 48
-44 71 -50 105 -26 71 50 109 455 65 698 l-19 109 49 49 c117 117 341 181 453
130 22 -10 85 -59 140 -110 163 -150 281 -207 446 -218 l87 -6 11 -61 c5 -34
15 -108 21 -166 9 -92 15 -131 36 -239 5 -21 9 -23 46 -18 75 10 126 89 106
164 -9 33 -59 83 -85 83 -8 0 -12 6 -10 13 3 6 16 42 28 80 23 66 23 67 54 61
43 -8 85 26 85 70 0 17 -5 37 -12 44 -9 9 -5 12 21 12 85 0 132 80 79 137 -20
22 -21 23 -2 23 10 0 42 11 70 24 80 37 107 92 63 132 -19 17 -37 19 -157 19
-106 0 -136 3 -140 14 -2 7 -13 22 -24 33 -18 18 -18 19 9 54 45 60 43 194 -3
194 -8 0 -37 -22 -64 -50 l-49 -50 -74 0 -74 0 -91 68 c-121 89 -188 129 -270
160 -59 22 -85 25 -227 28 -118 3 -178 -1 -230 -12z"/>
<path d="M8330 12951 c-65 -20 -114 -61 -91 -75 5 -3 42 1 82 9 41 8 96 17
122 21 56 6 58 23 6 41 -39 13 -82 15 -119 4z"/>
<path d="M8983 12901 c-39 -10 -83 -37 -83 -52 0 -8 90 -4 150 7 8 1 34 3 58
3 76 2 43 36 -44 45 -27 3 -64 1 -81 -3z"/>
<path d="M9951 12812 c-48 -24 -74 -62 -74 -111 0 -48 22 -84 66 -112 31 -19
49 -19 410 -17 l379 3 34 37 c29 32 34 45 34 87 0 34 -6 56 -22 76 -42 53 -57
55 -440 55 -316 0 -357 -2 -387 -18z"/>
<path d="M11285 12805 c-78 -39 -85 -155 -12 -207 l32 -23 1360 0 c1296 0
1361 1 1387 18 77 53 70 182 -12 217 -17 7 -459 11 -1370 13 -1328 2 -1346 2
-1385 -18z"/>
<path d="M15964 12797 c-44 -40 -55 -96 -29 -151 33 -70 -21 -66 950 -66 797
0 878 1 901 16 34 23 54 65 54 111 -1 47 -18 78 -56 104 -28 18 -56 19 -907
19 l-877 0 -36 -33z"/>
<path d="M9080 12725 c-59 -15 -99 -37 -129 -69 -32 -34 -23 -33 38 4 28 16
79 37 113 48 73 21 53 36 -22 17z"/>
<path d="M8726 12708 c12 -40 80 -209 134 -332 28 -65 49 -124 46 -131 -2 -7
-26 -16 -53 -20 -27 -3 -55 -11 -63 -17 -12 -8 -11 -9 3 -4 10 3 40 6 65 6 59
0 75 11 74 47 -1 40 -191 473 -208 473 -3 0 -2 -10 2 -22z"/>
<path d="M8338 12694 c-37 -11 -15 -19 55 -21 39 -1 92 -9 116 -17 51 -19 51
-19 51 -8 0 28 -167 62 -222 46z"/>
<path d="M9026 12577 c-11 -8 -18 -26 -18 -42 0 -52 67 -75 96 -33 21 30 20
44 -4 68 -23 23 -49 26 -74 7z"/>
<path d="M8457 12522 c-33 -37 -11 -92 37 -92 28 0 56 29 56 58 0 47 -61 69
-93 34z"/>
<path d="M9966 12130 c-83 -25 -113 -113 -66 -199 25 -48 53 -51 444 -51 347
0 366 1 399 20 41 24 57 56 57 115 0 54 -35 100 -88 115 -45 12 -704 12 -746
0z"/>
<path d="M8609 12102 c36 -67 163 -130 186 -92 3 6 -4 10 -17 10 -35 1 -100
34 -132 69 -33 34 -52 41 -37 13z"/>
<path d="M9313 11955 c1 -69 6 -125 11 -125 21 0 75 43 84 68 20 53 21 61 11
96 -11 38 -60 86 -89 86 -18 0 -19 -8 -17 -125z"/>
<path d="M12476 11501 c-40 -27 -55 -57 -56 -114 0 -43 5 -54 34 -83 l34 -34
190 0 c190 0 191 0 221 26 65 54 61 155 -8 201 -32 22 -43 23 -210 23 -157 0
-179 -2 -205 -19z"/>
<path d="M9229 11373 c-79 -49 -77 -175 3 -219 32 -18 93 -17 129 2 60 30 80
122 41 182 -32 50 -121 68 -173 35z"/>
<path d="M7926 11208 c5 -13 196 -159 217 -167 6 -2 43 -27 82 -56 38 -29 80
-57 93 -64 12 -7 20 -17 16 -23 -4 -7 -3 -8 5 -4 6 4 53 -20 109 -56 53 -36
127 -81 164 -102 37 -21 70 -42 74 -47 16 -27 31 0 54 96 14 58 28 105 32 105
4 0 24 -28 45 -61 20 -34 39 -56 41 -50 5 15 -90 163 -98 154 -4 -5 -20 -54
-35 -110 l-28 -102 -43 24 c-46 26 -93 55 -199 123 -211 137 -270 176 -275
182 -3 3 -29 21 -57 39 -30 18 -50 38 -46 44 3 6 1 7 -5 3 -7 -4 -41 13 -77
38 -70 49 -77 53 -69 34z"/>
<path d="M11100 11159 c-91 -21 -175 -44 -188 -51 -13 -6 -63 -75 -111 -152
-49 -78 -204 -325 -344 -549 l-256 -408 27 -10 c19 -8 54 -7 119 1 l93 13 -38
29 c-59 46 -82 79 -71 100 14 26 29 23 134 -23 78 -34 101 -40 145 -37 30 1
55 8 56 13 2 6 -18 26 -43 45 -91 68 -173 151 -173 175 0 26 42 65 69 65 9 0
76 -20 149 -44 82 -28 132 -40 132 -33 -1 7 -20 33 -43 58 -41 45 -44 47 -114
53 -118 10 -145 29 -105 74 12 13 51 27 124 42 l107 23 73 -27 c40 -14 76 -26
80 -26 21 0 52 87 74 209 28 154 39 188 65 201 29 16 47 1 56 -46 l8 -45 110
177 c61 97 112 181 114 186 5 15 -20 28 -54 27 -16 -1 -104 -18 -195 -40z m40
-104 c0 -16 -27 -32 -37 -22 -3 4 -3 13 0 22 8 20 37 20 37 0z"/>
<path d="M8991 10988 c-30 -172 -27 -165 -51 -135 -11 14 -20 28 -20 32 0 3
-11 18 -25 33 l-25 27 0 -75 c0 -72 15 -90 22 -25 3 29 5 27 45 -40 24 -38 43
-68 43 -65 0 3 9 68 20 145 10 77 20 159 22 182 4 85 -9 50 -31 -79z"/>
<path d="M12744 10801 c-47 -28 -64 -59 -64 -113 0 -40 5 -52 34 -81 23 -23
47 -36 75 -41 61 -9 981 -5 1017 5 48 14 76 51 82 109 5 58 -11 90 -61 120
-31 19 -54 20 -542 20 -484 0 -512 -1 -541 -19z"/>
<path d="M7065 10751 c3 -5 22 -15 43 -21 51 -17 172 -93 200 -127 62 -74 74
-92 98 -139 34 -70 54 -148 54 -217 0 -36 4 -56 10 -52 13 8 13 87 -1 160 -29
158 -151 310 -300 373 -53 23 -112 35 -104 23z"/>
<path d="M8884 10500 c8 -338 42 -880 82 -1335 31 -353 66 -670 75 -680 7 -7
8 7 4 40 -6 59 -59 712 -75 930 -5 83 -12 175 -15 205 -2 30 -9 129 -15 220
-5 91 -15 230 -20 310 -5 80 -15 235 -21 345 -6 110 -14 202 -17 205 -2 3 -2
-105 2 -240z"/>
<path d="M4844 10054 c3 -16 6 -35 8 -42 2 -6 -25 -25 -58 -41 l-62 -29 -11
25 c-7 14 -14 23 -17 21 -2 -3 0 -16 6 -29 10 -21 6 -30 -40 -78 -47 -51 -51
-53 -68 -37 -28 25 -38 19 -13 -8 l22 -24 -30 -61 c-30 -58 -32 -60 -57 -50
-35 13 -44 3 -10 -12 30 -14 29 -10 15 -99 -11 -67 -13 -69 -43 -73 l-31 -4
33 -1 c30 -2 32 -4 32 -41 0 -21 3 -52 6 -68 6 -28 4 -30 -38 -41 l-43 -11 44
2 45 2 14 -55 c13 -52 13 -54 -10 -72 l-23 -18 30 6 c28 5 32 2 59 -52 17 -36
24 -60 17 -62 -6 -2 -21 -12 -33 -23 -23 -19 -23 -19 15 -3 l38 15 65 -61 65
-60 132 -1 c73 0 181 0 240 0 l108 0 59 57 c32 31 71 74 86 95 21 31 30 37 41
28 7 -7 16 -10 18 -7 3 3 -1 10 -9 17 -12 10 -10 21 13 72 24 57 28 60 55 55
l28 -6 -21 18 c-20 16 -21 22 -14 82 8 61 10 65 33 63 l25 -3 -22 12 c-13 6
-23 18 -24 27 -1 18 -7 64 -13 102 -4 20 0 29 17 37 22 10 22 11 -4 11 -22 1
-28 8 -38 44 -7 23 -18 48 -25 56 -8 10 -8 15 0 18 6 2 20 10 30 18 17 14 16
14 -11 4 -26 -9 -32 -8 -45 13 -8 12 -28 37 -44 56 -28 31 -28 33 -11 52 20
22 14 26 -14 8 -15 -9 -26 -5 -65 25 -26 20 -53 38 -59 40 -9 3 -8 8 2 20 16
20 9 22 -17 6 -14 -9 -29 -7 -65 5 -26 9 -54 16 -62 16 -11 0 -13 9 -10 33 l5
32 -12 -27 c-11 -26 -17 -28 -67 -28 -31 -1 -75 -5 -98 -9 -30 -6 -43 -5 -43
3 -1 6 -7 25 -16 41 l-14 30 4 -31z"/>
<path d="M9626 9740 c3 -168 7 -321 9 -340 1 -19 6 -109 9 -200 4 -91 16 -313
26 -495 34 -569 34 -573 51 -590 7 -7 9 19 5 85 -4 52 -9 138 -11 190 -3 52
-8 124 -10 160 -3 36 -10 151 -15 255 -6 105 -12 233 -15 285 -16 287 -25 472
-31 615 -13 322 -23 341 -18 35z"/>
<path d="M7460 9946 c0 -2 -23 -122 -51 -267 -28 -145 -57 -298 -64 -339 -8
-41 -30 -160 -50 -265 -20 -104 -38 -205 -42 -222 -5 -29 -9 -33 -39 -33 -95
0 -236 -55 -295 -116 -34 -35 -24 -48 12 -15 37 34 148 82 227 98 l77 16 623
-207 c342 -115 622 -211 622 -216 0 -4 -9 -36 -21 -71 -17 -54 -35 -110 -85
-273 -4 -12 -2 -17 7 -14 7 2 40 89 74 193 l60 189 -220 73 c-121 41 -400 133
-620 205 -220 72 -401 132 -403 133 -2 2 31 189 73 416 120 662 130 719 121
719 -3 0 -6 -2 -6 -4z"/>
<path d="M9910 9432 c-44 -22 -80 -89 -80 -151 0 -33 -11 -68 -41 -129 -41
-82 -45 -120 -9 -72 11 14 20 28 20 32 0 4 9 22 19 39 l19 32 12 -43 c34 -126
139 -267 254 -342 32 -21 63 -38 68 -38 19 0 5 17 -39 45 -146 92 -258 273
-270 436 -8 102 23 169 87 183 30 7 76 -15 72 -35 -3 -10 0 -11 8 -3 17 16 2
41 -32 53 -41 14 -47 14 -88 -7z"/>
<path d="M14535 9407 c-61 -61 -53 -154 17 -197 33 -20 47 -20 1226 -20 1315
0 1234 -4 1268 62 19 36 21 97 4 128 -6 12 -26 30 -43 40 -31 19 -61 20 -1235
20 l-1204 0 -33 -33z"/>
<path d="M11082 9398 c-197 -328 -818 -1426 -810 -1433 5 -6 217 357 525 900
229 403 317 565 309 565 -2 0 -13 -15 -24 -32z"/>
<path d="M4474 8728 c3 -13 6 -26 6 -29 0 -3 73 -11 163 -18 657 -47 851 -60
855 -56 2 2 10 31 17 64 l13 61 -530 0 -530 0 6 -22z"/>
<path d="M12408 4214 c-32 -14 -55 -40 -44 -51 2 -2 22 4 45 13 22 9 48 13 56
10 9 -3 13 -2 10 3 -3 6 9 11 27 13 18 2 33 8 33 13 0 16 -87 16 -127 -1z"/>
<path d="M4434 2130 c0 -135 2 -190 3 -122 2 67 2 177 0 245 -1 67 -3 12 -3
-123z"/>
<path d="M12000 2130 c-19 -4 -46 -12 -59 -19 -32 -18 -9 -32 33 -20 17 5 55
9 85 9 44 0 52 2 42 14 -14 17 -55 23 -101 16z"/>
<path d="M12029 1887 c-36 -24 -68 -71 -57 -83 4 -4 23 7 43 25 20 17 53 40
75 51 22 11 40 23 40 25 0 15 -72 2 -101 -18z"/>
<path d="M6859 1816 c-147 -52 -199 -220 -108 -345 16 -23 29 -43 29 -46 0 -3
-989 -6 -2197 -8 l-2198 -2 2208 -3 c2034 -2 2212 -3 2268 -19 53 -15 67 -15
112 -3 77 20 1338 20 1415 0 45 -12 59 -12 100 0 68 21 1120 21 1200 0 45 -12
59 -12 95 0 34 11 179 15 775 17 402 2 732 7 732 11 0 5 -317 6 -705 4 -388
-3 -705 -1 -705 3 0 4 11 20 25 37 33 39 58 126 49 175 -10 60 -51 122 -101
153 -150 96 -343 -10 -343 -188 0 -51 41 -149 66 -159 50 -19 -36 -23 -491
-23 -283 0 -505 4 -505 9 0 5 7 14 16 22 57 47 76 178 36 256 -37 72 -119 123
-198 123 -86 0 -191 -77 -213 -156 -23 -82 -3 -173 48 -218 11 -11 21 -23 21
-28 0 -4 -274 -8 -610 -8 -335 0 -610 4 -610 8 0 5 10 17 21 28 33 29 59 94
59 149 0 151 -152 261 -291 211z"/>
<path d="M12237 1810 c-28 -22 -52 -89 -38 -103 5 -5 20 12 35 37 25 43 36 51
61 46 6 -1 7 2 3 6 -4 4 -3 13 3 21 19 22 -34 16 -64 -7z"/>
</g>
</svg>
